<svg width="175" height="49" viewBox="0 0 175 49" fill="none" xmlns="http://www.w3.org/2000/svg">
<path d="M20.0813 18.1502C19.3636 15.5129 17.2121 12.9533 14.9956 11.1912C13.0519 9.64592 11.6438 9.40666 11.4122 6.53519C11.1497 3.27918 13.6916 0.329306 17.3256 0.109395C19.0398 -0.168968 20.9254 0.529981 21.9747 1.7976C22.2727 1.33169 22.7308 0.951339 23.2485 0.694749C29.0198 -2.1662 35.4014 4.42878 31.5093 9.20062C30.7752 10.1007 29.8894 10.5728 28.9912 11.2894C26.7107 13.1086 24.693 15.4786 23.798 18.1502C27.1031 17.4502 30.4759 14.5912 32.5162 12.2366C37.5148 6.46813 47.7846 13.4992 42.1837 19.8555C43.4813 21.159 43.9481 22.8345 43.6716 24.5709C43.0101 28.7251 37.3483 30.8317 33.638 28.3411C32.8573 27.8171 32.2858 27.0526 31.6083 26.4238C29.9287 24.8649 26.4101 22.1419 23.9073 21.7923C24.8886 24.3406 26.8695 26.5917 29.0154 28.4179C30.7668 29.9084 32.3693 30.6859 32.544 33.2567C32.8932 38.4007 26.1888 41.662 21.9747 38.1543C19.7294 39.9643 17.3148 39.9525 14.7866 38.8209C13.9559 39.8439 13.0502 40.808 12.0879 41.73C10.684 43.0434 3.99943 48.3385 1.87986 47.9829C0.979664 47.8319 0.247836 46.9316 0.42169 46.0987L0.431998 46.0519C0.613989 45.1887 1.45652 44.9475 2.21255 44.5869C5.59954 42.9722 10.2617 39.6922 12.2546 36.581C11.1247 34.5658 10.7609 32.432 12.434 30.4912C12.9182 29.9296 13.5511 29.5027 14.1286 29.0264C17.2098 26.4855 18.2554 24.974 20.0813 21.7923C17.461 22.2457 14.3734 24.5371 12.5739 26.2775C11.8298 26.9972 11.0701 27.9411 10.2116 28.5139C6.29715 31.1262 0.637647 28.4517 0.165338 24.0153C-0.0202433 22.2722 0.529089 21.1835 1.73297 19.8555C1.29133 19.3948 0.918777 18.9665 0.61478 18.4158C-2.30366 13.1289 5.85456 7.20369 10.6854 11.3906C11.1333 11.7788 11.5016 12.2565 11.8881 12.6949C14.0635 15.1622 16.7822 17.1338 20.0813 18.1502Z" fill="#FF4AC0"/>
<path d="M25.215 30.045V35.145H32.085V38.895H25.215V44.1H34.185V48H20.115V26.145H34.185V30.045H25.215ZM41.8099 48.24C41.0699 48.24 40.4149 48.135 39.8449 47.925C39.2849 47.705 38.8099 47.4 38.4199 47.01C38.0399 46.61 37.7499 46.13 37.5499 45.57C37.3499 45.01 37.2499 44.385 37.2499 43.695V35.655H35.9299C35.6899 35.655 35.4849 35.58 35.3149 35.43C35.1449 35.27 35.0599 35.04 35.0599 34.74V32.925L37.5349 32.445L38.4499 28.65C38.5699 28.17 38.9099 27.93 39.4699 27.93H41.8999V32.475H45.7549V35.655H41.8999V43.38C41.8999 43.74 41.9849 44.04 42.1549 44.28C42.3349 44.51 42.5899 44.625 42.9199 44.625C43.0899 44.625 43.2299 44.61 43.3399 44.58C43.4599 44.54 43.5599 44.5 43.6399 44.46C43.7299 44.41 43.8099 44.37 43.8799 44.34C43.9599 44.3 44.0499 44.28 44.1499 44.28C44.2899 44.28 44.3999 44.315 44.4799 44.385C44.5699 44.445 44.6599 44.545 44.7499 44.685L46.1599 46.89C45.5599 47.34 44.8849 47.68 44.1349 47.91C43.3849 48.13 42.6099 48.24 41.8099 48.24ZM52.4086 33.81C52.9686 33.33 53.5736 32.945 54.2236 32.655C54.8836 32.355 55.6686 32.205 56.5786 32.205C57.4286 32.205 58.1786 32.355 58.8286 32.655C59.4886 32.945 60.0436 33.355 60.4936 33.885C60.9436 34.405 61.2836 35.03 61.5136 35.76C61.7436 36.48 61.8586 37.265 61.8586 38.115V48H57.2086V38.115C57.2086 37.355 57.0336 36.765 56.6836 36.345C56.3336 35.915 55.8186 35.7 55.1386 35.7C54.6286 35.7 54.1486 35.81 53.6986 36.03C53.2586 36.24 52.8286 36.53 52.4086 36.9V48H47.7586V25.545H52.4086V33.81ZM69.623 32.445V48H64.973V32.445H69.623ZM70.103 28.185C70.103 28.555 70.028 28.905 69.878 29.235C69.728 29.555 69.523 29.84 69.263 30.09C69.003 30.33 68.698 30.525 68.348 30.675C68.008 30.815 67.643 30.885 67.253 30.885C66.873 30.885 66.518 30.815 66.188 30.675C65.858 30.525 65.563 30.33 65.303 30.09C65.053 29.84 64.853 29.555 64.703 29.235C64.563 28.905 64.493 28.555 64.493 28.185C64.493 27.805 64.563 27.45 64.703 27.12C64.853 26.79 65.053 26.5 65.303 26.25C65.563 26 65.858 25.805 66.188 25.665C66.518 25.525 66.873 25.455 67.253 25.455C67.643 25.455 68.008 25.525 68.348 25.665C68.698 25.805 69.003 26 69.263 26.25C69.523 26.5 69.728 26.79 69.878 27.12C70.028 27.45 70.103 27.805 70.103 28.185ZM84.296 36.135C84.156 36.305 84.021 36.44 83.891 36.54C83.761 36.64 83.576 36.69 83.336 36.69C83.106 36.69 82.896 36.635 82.706 36.525C82.526 36.415 82.321 36.295 82.091 36.165C81.861 36.025 81.591 35.9 81.281 35.79C80.971 35.68 80.586 35.625 80.126 35.625C79.556 35.625 79.061 35.73 78.641 35.94C78.231 36.15 77.891 36.45 77.621 36.84C77.351 37.23 77.151 37.71 77.021 38.28C76.891 38.84 76.826 39.475 76.826 40.185C76.826 41.675 77.111 42.82 77.681 43.62C78.261 44.42 79.056 44.82 80.066 44.82C80.606 44.82 81.031 44.755 81.341 44.625C81.661 44.485 81.931 44.335 82.151 44.175C82.371 44.005 82.571 43.85 82.751 43.71C82.941 43.57 83.176 43.5 83.456 43.5C83.826 43.5 84.106 43.635 84.296 43.905L85.646 45.57C85.166 46.12 84.661 46.57 84.131 46.92C83.601 47.26 83.056 47.53 82.496 47.73C81.946 47.92 81.391 48.05 80.831 48.12C80.271 48.2 79.726 48.24 79.196 48.24C78.246 48.24 77.336 48.06 76.466 47.7C75.606 47.34 74.846 46.82 74.186 46.14C73.536 45.45 73.016 44.605 72.626 43.605C72.246 42.605 72.056 41.465 72.056 40.185C72.056 39.065 72.221 38.02 72.551 37.05C72.891 36.07 73.386 35.225 74.036 34.515C74.696 33.795 75.506 33.23 76.466 32.82C77.436 32.41 78.556 32.205 79.826 32.205C81.046 32.205 82.116 32.4 83.036 32.79C83.956 33.18 84.786 33.75 85.526 34.5L84.296 36.135ZM97.3409 35.85C97.2209 36.04 97.0909 36.175 96.9509 36.255C96.8209 36.335 96.6509 36.375 96.4409 36.375C96.2209 36.375 96.0009 36.33 95.7809 36.24C95.5609 36.14 95.3209 36.035 95.0609 35.925C94.8109 35.815 94.5259 35.715 94.2059 35.625C93.8859 35.525 93.5209 35.475 93.1109 35.475C92.5209 35.475 92.0659 35.59 91.7459 35.82C91.4359 36.04 91.2809 36.35 91.2809 36.75C91.2809 37.04 91.3809 37.28 91.5809 37.47C91.7909 37.66 92.0659 37.83 92.4059 37.98C92.7459 38.12 93.1309 38.255 93.5609 38.385C93.9909 38.515 94.4309 38.66 94.8809 38.82C95.3309 38.98 95.7709 39.17 96.2009 39.39C96.6309 39.6 97.0159 39.865 97.3559 40.185C97.6959 40.495 97.9659 40.875 98.1659 41.325C98.3759 41.775 98.4809 42.315 98.4809 42.945C98.4809 43.715 98.3409 44.425 98.0609 45.075C97.7809 45.725 97.3609 46.285 96.8009 46.755C96.2509 47.225 95.5659 47.59 94.7459 47.85C93.9359 48.11 93.0009 48.24 91.9409 48.24C91.4109 48.24 90.8809 48.19 90.3509 48.09C89.8209 47.99 89.3059 47.855 88.8059 47.685C88.3159 47.515 87.8609 47.315 87.4409 47.085C87.0209 46.845 86.6609 46.59 86.3609 46.32L87.4409 44.61C87.5609 44.41 87.7109 44.255 87.8909 44.145C88.0809 44.025 88.3209 43.965 88.6109 43.965C88.8809 43.965 89.1209 44.025 89.3309 44.145C89.5509 44.265 89.7859 44.395 90.0359 44.535C90.2859 44.675 90.5759 44.805 90.9059 44.925C91.2459 45.045 91.6709 45.105 92.1809 45.105C92.5409 45.105 92.8459 45.07 93.0959 45C93.3459 44.92 93.5459 44.815 93.6959 44.685C93.8459 44.555 93.9559 44.41 94.0259 44.25C94.0959 44.09 94.1309 43.925 94.1309 43.755C94.1309 43.445 94.0259 43.19 93.8159 42.99C93.6059 42.79 93.3309 42.62 92.9909 42.48C92.6509 42.33 92.2609 42.195 91.8209 42.075C91.3909 41.945 90.9509 41.8 90.5009 41.64C90.0509 41.48 89.6059 41.29 89.1659 41.07C88.7359 40.84 88.3509 40.555 88.0109 40.215C87.6709 39.865 87.3959 39.44 87.1859 38.94C86.9759 38.44 86.8709 37.835 86.8709 37.125C86.8709 36.465 86.9959 35.84 87.2459 35.25C87.5059 34.65 87.8909 34.125 88.4009 33.675C88.9109 33.225 89.5509 32.87 90.3209 32.61C91.0909 32.34 91.9909 32.205 93.0209 32.205C93.5809 32.205 94.1209 32.255 94.6409 32.355C95.1709 32.455 95.6659 32.595 96.1259 32.775C96.5859 32.955 97.0059 33.17 97.3859 33.42C97.7659 33.66 98.1009 33.925 98.3909 34.215L97.3409 35.85ZM123.029 42.345C123.149 42.345 123.269 42.37 123.389 42.42C123.509 42.46 123.624 42.535 123.734 42.645L125.744 44.76C124.864 45.91 123.759 46.78 122.429 47.37C121.109 47.95 119.544 48.24 117.734 48.24C116.074 48.24 114.584 47.96 113.264 47.4C111.954 46.83 110.839 46.05 109.919 45.06C109.009 44.06 108.309 42.88 107.819 41.52C107.329 40.15 107.084 38.665 107.084 37.065C107.084 35.435 107.349 33.94 107.879 32.58C108.409 31.21 109.154 30.03 110.114 29.04C111.074 28.05 112.224 27.28 113.564 26.73C114.904 26.18 116.379 25.905 117.989 25.905C118.809 25.905 119.579 25.98 120.299 26.13C121.029 26.27 121.709 26.47 122.339 26.73C122.969 26.98 123.549 27.285 124.079 27.645C124.609 28.005 125.079 28.395 125.489 28.815L123.779 31.11C123.669 31.25 123.539 31.38 123.389 31.5C123.239 31.61 123.029 31.665 122.759 31.665C122.579 31.665 122.409 31.625 122.249 31.545C122.089 31.465 121.919 31.37 121.739 31.26C121.559 31.14 121.359 31.015 121.139 30.885C120.929 30.745 120.674 30.62 120.374 30.51C120.084 30.39 119.739 30.29 119.339 30.21C118.949 30.13 118.489 30.09 117.959 30.09C117.119 30.09 116.349 30.245 115.649 30.555C114.959 30.865 114.359 31.32 113.849 31.92C113.349 32.51 112.959 33.24 112.679 34.11C112.409 34.97 112.274 35.955 112.274 37.065C112.274 38.185 112.424 39.18 112.724 40.05C113.034 40.92 113.449 41.655 113.969 42.255C114.499 42.845 115.114 43.295 115.814 43.605C116.514 43.915 117.264 44.07 118.064 44.07C118.524 44.07 118.944 44.05 119.324 44.01C119.704 43.96 120.059 43.885 120.389 43.785C120.719 43.675 121.029 43.535 121.319 43.365C121.609 43.185 121.904 42.96 122.204 42.69C122.324 42.59 122.454 42.51 122.594 42.45C122.734 42.38 122.879 42.345 123.029 42.345ZM135.067 36.42C135.757 36.42 136.342 36.335 136.822 36.165C137.312 35.985 137.712 35.74 138.022 35.43C138.332 35.12 138.557 34.76 138.697 34.35C138.837 33.93 138.907 33.48 138.907 33C138.907 32.04 138.592 31.29 137.962 30.75C137.342 30.21 136.377 29.94 135.067 29.94H133.027V36.42H135.067ZM145.837 48H141.247C140.397 48 139.787 47.68 139.417 47.04L135.787 40.695C135.617 40.425 135.427 40.23 135.217 40.11C135.007 39.98 134.707 39.915 134.317 39.915H133.027V48H127.957V26.145H135.067C136.647 26.145 137.992 26.31 139.102 26.64C140.222 26.96 141.132 27.41 141.832 27.99C142.542 28.57 143.057 29.255 143.377 30.045C143.697 30.835 143.857 31.695 143.857 32.625C143.857 33.335 143.762 34.005 143.572 34.635C143.382 35.265 143.102 35.85 142.732 36.39C142.362 36.92 141.902 37.395 141.352 37.815C140.812 38.235 140.187 38.58 139.477 38.85C139.807 39.02 140.117 39.235 140.407 39.495C140.697 39.745 140.957 40.045 141.187 40.395L145.837 48ZM172.244 26.145V48H167.774V35.43C167.774 35.14 167.779 34.825 167.789 34.485C167.809 34.145 167.839 33.8 167.879 33.45L162.074 44.685C161.894 45.035 161.649 45.3 161.339 45.48C161.039 45.66 160.694 45.75 160.304 45.75H159.614C159.224 45.75 158.874 45.66 158.564 45.48C158.264 45.3 158.024 45.035 157.844 44.685L152.039 33.42C152.069 33.78 152.094 34.135 152.114 34.485C152.134 34.825 152.144 35.14 152.144 35.43V48H147.674V26.145H151.544C151.764 26.145 151.954 26.15 152.114 26.16C152.284 26.17 152.434 26.2 152.564 26.25C152.694 26.3 152.809 26.38 152.909 26.49C153.019 26.59 153.124 26.735 153.224 26.925L158.849 38.01C159.049 38.39 159.239 38.785 159.419 39.195C159.609 39.605 159.789 40.025 159.959 40.455C160.129 40.015 160.304 39.585 160.484 39.165C160.674 38.745 160.874 38.345 161.084 37.965L166.694 26.925C166.794 26.735 166.894 26.59 166.994 26.49C167.104 26.38 167.224 26.3 167.354 26.25C167.484 26.2 167.629 26.17 167.789 26.16C167.959 26.15 168.154 26.145 168.374 26.145H172.244Z" fill="white"/>
</svg>
